<?xml version="1.0" encoding="utf-8"?>
<!-- Generator: Adobe Illustrator 24.2.0, SVG Export Plug-In . SVG Version: 6.00 Build 0)  -->
<svg version="1.1" id="Capa_1" xmlns="http://www.w3.org/2000/svg" xmlns:xlink="http://www.w3.org/1999/xlink" x="0px" y="0px"
	 viewBox="0 0 512 512" style="enable-background:new 0 0 512 512;" xml:space="preserve">
<g>
	<g>
		<path d="M339.4,157.8c-30.4,0-59.1,9.4-83.4,27.1c-15.2-11.1-32-18.9-49.9-23.2l38-43.6c0,0,0,0,0,0c0.2-0.3,0.4-0.5,0.6-0.8
			c0,0,0.1-0.1,0.1-0.1c0.2-0.3,0.3-0.6,0.4-0.9c0,0,0-0.1,0.1-0.1c0.1-0.3,0.2-0.6,0.3-1c0,0,0-0.1,0-0.1c0.1-0.3,0.1-0.6,0.1-1
			c0,0,0-0.1,0-0.1c0,0,0,0,0-0.1c0-0.3,0-0.6-0.1-0.9c0-0.1,0-0.1,0-0.2c-0.1-0.3-0.1-0.7-0.2-1c0,0,0-0.1,0-0.1
			c-0.1-0.3-0.3-0.7-0.4-1c0,0,0,0,0,0c-0.2-0.3-0.4-0.6-0.6-0.9c0,0,0,0,0,0l0,0l-29.4-36.1c-1.3-1.5-3.1-2.4-5.1-2.4h-22.4h-29.4
			h-22.4c-2,0-3.9,0.9-5.1,2.4L101,109.6l0,0c0,0,0,0,0,0c-0.2,0.3-0.4,0.6-0.6,0.9c0,0,0,0,0,0c-0.2,0.3-0.3,0.6-0.4,1
			c0,0,0,0.1,0,0.1c-0.1,0.3-0.2,0.6-0.2,1c0,0.1,0,0.1,0,0.2c0,0.3-0.1,0.6-0.1,0.9c0,0,0,0,0,0.1c0,0,0,0.1,0,0.1
			c0,0.3,0,0.7,0.1,1c0,0,0,0.1,0,0.1c0.1,0.3,0.2,0.7,0.3,1c0,0.1,0,0.1,0.1,0.1c0.1,0.3,0.3,0.6,0.4,0.9c0,0,0.1,0.1,0.1,0.1
			c0.2,0.3,0.4,0.6,0.6,0.8c0,0,0,0,0,0l38.1,43.7C77.2,176.8,31,232.8,31,299.4C31,377.5,94.5,441,172.6,441
			c30.4,0,59.1-9.4,83.4-27.1c24.3,17.8,53,27.1,83.4,27.1c78.1,0,141.6-63.5,141.6-141.6S417.5,157.8,339.4,157.8z M206.6,84.2
			l18.7,22.9h-21.5l-7.4-22.9C196.4,84.2,206.6,84.2,206.6,84.2z M203.7,120.4h21L191,158.9c-0.2,0-0.4-0.1-0.6-0.1L203.7,120.4z
			 M162.8,84.2h19.7l7.4,22.9h-34.5L162.8,84.2z M189.7,120.4l-12.9,37.5c-1.4,0-2.7-0.1-4.1-0.1c-0.8,0-1.7,0-2.6,0
			c-0.5,0-1,0-1.5,0l-12.9-37.5H189.7z M138.7,84.2h10.2l-7.4,22.9H120L138.7,84.2z M120.6,120.4h21l13.3,38.5
			c-0.2,0-0.4,0.1-0.6,0.1L120.6,120.4z M172.6,427.8c-70.8,0-128.4-57.6-128.4-128.4c0-64.1,47.1-117.3,108.5-126.9
			c1.5-0.2,3.1-0.4,4.6-0.6c0.2,0,0.4,0,0.6-0.1c2.1-0.2,4.2-0.4,6.2-0.5c0,0,0.1,0,0.1,0c1.5-0.1,2.9-0.2,4.3-0.2
			c1.4,0,2.7-0.1,4.1-0.1c2.7,0,5.4,0.2,8.3,0.4c0.1,0,0.3,0,0.4,0c0.1,0,0.2,0,0.3,0c3.5,0.3,7.1,0.7,10.8,1.3
			c0.3,0.1,0.7,0.1,1,0.1c0,0,0,0,0,0c21.2,3.5,41.1,12.2,58.3,25.7c1.8,1.4,3.5,2.8,5.2,4.3c1.7,1.5,3.3,2.9,4.9,4.5
			c0.9,0.8,1.7,1.7,2.5,2.5c2.4,2.4,4.7,5,6.8,7.6c0,0,0,0,0,0c19.1,23,29.7,52.1,29.7,82.1c0,27.8-9.1,54.9-25.7,77.1
			c0,0-0.1-0.1-0.1-0.1c-0.9-0.8-1.8-1.5-2.7-2.3c-0.2-0.2-0.3-0.3-0.5-0.5c-0.7-0.6-1.4-1.3-2.1-2c-0.3-0.3-0.6-0.6-0.9-0.9
			c-0.6-0.5-1.1-1.1-1.6-1.6c-0.3-0.3-0.6-0.7-1-1c-0.5-0.5-1-1.1-1.5-1.6c-0.1-0.2-0.3-0.3-0.4-0.5c10.7-14.7,17.7-31.8,20.3-49.7
			c0.5-3.6-2-7-5.6-7.5c-3.6-0.5-7,2-7.5,5.6c-2.2,14.6-7.6,28.5-15.7,40.7c-11-16.4-16.8-35.5-16.8-55.6c0-20.1,5.8-39.1,16.8-55.6
			c9,13.5,14.6,29,16.3,45.2c0.3,3.4,3.2,5.9,6.6,5.9c0.2,0,0.5,0,0.7,0c3.6-0.4,6.3-3.6,5.9-7.2c-2.2-21.7-10.6-42.1-24.3-59.2
			c-5.5-6.9-11.8-13.1-18.7-18.5c-1-0.8-2-1.5-3-2.3c-19.5-14.3-42.6-21.8-66.8-21.8c-27.3,0-53.7,9.8-74.3,27.7
			c-2.8,2.4-3.1,6.6-0.7,9.3c2.4,2.8,6.6,3.1,9.3,0.7c18.2-15.8,41.5-24.5,65.6-24.5c19.1,0,37.4,5.3,53.4,15.4
			c-18.2,24.4-28.2,54.2-28.2,84.8c0,30.6,10,60.4,28.2,84.8c-16,10.1-34.3,15.4-53.4,15.4c-55.3,0-100.2-45-100.2-100.2
			c0-20.6,6.2-40.3,17.9-57.1c2.1-3,1.3-7.1-1.7-9.2c-3-2.1-7.1-1.3-9.2,1.7c-13.2,19-20.2,41.4-20.2,64.6
			c0,62.5,50.9,113.4,113.4,113.4c22.2,0,43.4-6.3,61.8-18.3c0.2,0.2,0.3,0.4,0.5,0.5c0.4,0.5,0.9,0.9,1.3,1.4
			c0.4,0.4,0.8,0.9,1.3,1.3c0.4,0.5,0.9,0.9,1.4,1.4c0.4,0.4,0.9,0.9,1.3,1.3c0.5,0.5,0.9,0.9,1.4,1.3c0.4,0.4,0.9,0.9,1.3,1.3
			c0.5,0.4,1,0.9,1.4,1.3c0.3,0.3,0.6,0.6,0.9,0.9C223.9,420,198.9,427.8,172.6,427.8z M339.4,427.8c-29.1,0-56.5-9.5-79.3-27.4
			c-7.1-5.6-13.6-12-19.4-18.9c-19.1-23-29.7-52.1-29.7-82.1c0-27.8,9.1-54.9,25.7-77.1c0,0,0.1,0.1,0.1,0.1
			c0.9,0.8,1.8,1.5,2.7,2.3c0.2,0.2,0.3,0.3,0.5,0.5c0.7,0.6,1.4,1.3,2.1,1.9c0.3,0.3,0.6,0.6,0.9,0.9c0.5,0.5,1.1,1.1,1.6,1.6
			c0.3,0.3,0.7,0.7,1,1c0.5,0.5,1,1.1,1.5,1.6c0.2,0.2,0.3,0.3,0.5,0.5c-13.9,19.3-21.6,42.7-21.6,66.5c0,25.7,8.8,50.9,24.9,70.9
			c6.3,7.8,13.6,14.8,21.7,20.7c19.5,14.3,42.6,21.8,66.8,21.8c29.7,0,57.7-11.4,79-32c2.6-2.5,2.7-6.7,0.1-9.3
			c-2.5-2.6-6.7-2.7-9.3-0.1c-18.8,18.2-43.6,28.3-69.8,28.3c-19.1,0-37.4-5.3-53.4-15.4c18.2-24.4,28.2-54.2,28.2-84.8
			s-10-60.4-28.2-84.8c16-10.1,34.3-15.4,53.4-15.4c55.3,0,100.2,45,100.2,100.2c0,18.6-5.1,36.8-14.8,52.5
			c-1.9,3.1-0.9,7.2,2.2,9.1c3.1,1.9,7.2,0.9,9.1-2.2c11-17.8,16.8-38.4,16.8-59.4c0-62.5-50.9-113.4-113.4-113.4
			c-22.2,0-43.4,6.3-61.8,18.3c-0.2-0.2-0.3-0.3-0.5-0.5c-0.4-0.5-0.9-1-1.4-1.5c-0.4-0.4-0.8-0.9-1.2-1.3c-0.5-0.5-0.9-1-1.4-1.4
			c-0.4-0.4-0.8-0.8-1.3-1.3c-0.5-0.5-1-0.9-1.4-1.4c-0.4-0.4-0.9-0.8-1.3-1.2c-0.5-0.5-1-0.9-1.5-1.4c-0.3-0.3-0.6-0.6-0.9-0.8
			c21.4-14.8,46.4-22.5,72.7-22.5c70.8,0,128.4,57.6,128.4,128.4C467.8,370.2,410.2,427.8,339.4,427.8z"/>
	</g>
</g>
</svg>
